<svg id="Layer_1" data-name="Layer 1" xmlns="http://www.w3.org/2000/svg" viewBox="0 0 524.41 538.21"><path d="M694.14,433.39l-.43.21a61.94,61.94,0,0,1-16.08-11.51,49.9,49.9,0,0,1-9.17-11.9c5.86,5.55,13.24,9.27,21.67,9.41a18.57,18.57,0,0,0,3.16-.2,2.39,2.39,0,0,0,1.66-2.93,2.45,2.45,0,0,0-2.93-1.66l.34,0-.25,0c-.48,0-.94,0-1.42.06-.71,0-1.43,0-2.14-.08-.39,0-.77-.08-1.14-.12l-.44-.07-.77-.13a28.8,28.8,0,0,1-14.13-7.23,38.32,38.32,0,0,1-6-7.14l0,0c.15-.14.28-.3.42-.44l.43-.37.4-.28c.4-.25.8-.48,1.22-.69.22-.11.44-.22.66-.31l.55-.23a30.24,30.24,0,0,1,3.36-1c1.19-.29,2.4-.52,3.61-.72s1.85-.27,3.23-.41q3.06-.31,6.14-.4c1,0,2-.05,3,0,3.06.06,3.06-4.7,0-4.75a77.82,77.82,0,0,0-9.41.46c-4.31.45-9.2,1.05-13.2,3.09a30.43,30.43,0,0,1,5.61-10.46,46.37,46.37,0,0,1,6.23-6.3l1.07-.86.73-.55c.28-.2.56-.4.85-.59,2.56-1.66.18-5.78-2.4-4.11a42.26,42.26,0,0,0-14.6,16.22c1.53-10.63,7.37-20.3,14-28.5a2.39,2.39,0,0,0-2.24-4c.16,0,.28,0-.07,0L674,355q-3,.28-6,.34a74.82,74.82,0,0,1-18.1-1.61c-1.07-.24-2.13-.52-3.19-.82a38.21,38.21,0,0,0,9.89-2.5,46.8,46.8,0,0,0,11.6-6.52c2.4-1.89-1-5.24-3.36-3.36l.2-.16-.32.23c-.55.4-1.11.79-1.69,1.16a49.82,49.82,0,0,1-5.71,3.19c-5.32,2.51-11.48,4.1-17.38,3.17a21.61,21.61,0,0,1-6.77-2.25l2.86-2.9c4.31-4.37,8.83-8.61,13-13.16l.19-.19c2.15-2.18-1.21-5.54-3.36-3.36L635.28,337l-4.71,4.78a38,38,0,0,1-.76-3.94c-1.17-9,.2-18.08,2.6-26.71.82-2.95-3.77-4.22-4.59-1.27-2.37,8.54-3.75,17.54-2.93,26.4.08.87.16,1.79.27,2.74a34.08,34.08,0,0,1-6.94-19.21c-.23-5.37.46-11.14,2.85-16,.94-1.91-1.16-4.78-3.25-3.25A63.52,63.52,0,0,1,600,309.32a54.18,54.18,0,0,1-10.82,2.35l1-.61a71.5,71.5,0,0,0,13-11c.84-.89,1.68-1.79,2.47-2.72,2-2.33-1.39-5.71-3.36-3.37A73.17,73.17,0,0,1,596,300.5c-4,3.72-8.61,7.42-13.79,9.39-.6.23-1.2.43-1.81.6a37,37,0,0,0,.61-3.77,76.21,76.21,0,0,0,.48-8.67c0-3.67-.05-7.34-.31-11a2.44,2.44,0,0,0-2.37-2.38,2.4,2.4,0,0,0-2.38,2.38c.24,3.46.33,6.94.31,10.41,0,2.81-.1,5.63-.39,8.42a28,28,0,0,1-.51,3.28c-.06.26-.14.53-.21.79-10.06-3.89-15.77-15.37-17.3-25.6-.45-3-5-1.74-4.58,1.26a42.59,42.59,0,0,0,8.1,19.41c-8.34-5.94-14.13-14.84-18.42-24-1.3-2.77-5.4-.36-4.1,2.4.06.14.14.28.21.43A62.21,62.21,0,0,1,528,299.93a49.51,49.51,0,0,1-11.9,9.17c5.55-5.86,9.27-13.24,9.41-21.67a18.57,18.57,0,0,0-.2-3.16,2.38,2.38,0,0,0-2.92-1.66,2.43,2.43,0,0,0-1.66,2.92c0-.14,0-.25-.05-.33s0,.14,0,.25c0,.47.06.94.06,1.42,0,.71,0,1.43-.08,2.14q0,.57-.12,1.14c0,.11,0,.35-.06.44,0,.25-.09.51-.14.77a28.7,28.7,0,0,1-7.22,14.13,38.65,38.65,0,0,1-7.14,5.95l0-.05c-.15-.14-.3-.27-.44-.42s-.25-.28-.37-.42-.22-.3-.28-.4a13.65,13.65,0,0,1-.7-1.22c-.11-.22-.21-.44-.31-.66l-.22-.56a28.11,28.11,0,0,1-1-3.35c-.29-1.19-.53-2.4-.72-3.62s-.28-1.84-.42-3.22q-.3-3.06-.4-6.14c0-1-.05-2,0-3,0-3.06-4.7-3.06-4.76,0a79.92,79.92,0,0,0,.46,9.41c.45,4.31,1.06,9.2,3.09,13.19a30.27,30.27,0,0,1-10.45-5.6,45.8,45.8,0,0,1-6.3-6.23c-.3-.35-.58-.71-.86-1.07l-.56-.74c-.2-.27-.4-.55-.58-.84-1.66-2.56-5.78-.18-4.11,2.4a42.34,42.34,0,0,0,16.22,14.6c-10.63-1.53-20.3-7.37-28.51-14a2.39,2.39,0,0,0-4,2.24c0-.16,0-.28,0,.07.06.59.13,1.18.19,1.77.19,2,.3,4,.35,6a74.87,74.87,0,0,1-1.62,18.1c-.24,1.07-.52,2.13-.81,3.19a37.83,37.83,0,0,0-2.51-9.89,46.17,46.17,0,0,0-6.52-11.6c-1.89-2.41-5.23,1-3.36,3.36l-.15-.2.23.31c.39.56.78,1.12,1.16,1.7a49.75,49.75,0,0,1,3.18,5.71c2.52,5.32,4.1,11.48,3.18,17.38a22.13,22.13,0,0,1-2.25,6.77l-2.91-2.87c-4.37-4.3-8.61-8.83-13.15-13a1.62,1.62,0,0,1-.19-.18c-2.18-2.15-5.55,1.21-3.36,3.36l10.74,10.59L447.7,347c-1.31.31-2.62.58-3.95.76-8.94,1.17-18.08-.2-26.71-2.6-3-.82-4.21,3.77-1.26,4.59,8.53,2.37,17.53,3.75,26.4,2.93.86-.08,1.79-.16,2.73-.27a34.05,34.05,0,0,1-19.2,6.94c-5.37.23-11.15-.46-16-2.85-1.92-.94-4.79,1.15-3.26,3.25a63.49,63.49,0,0,1,8.8,17.81,54.4,54.4,0,0,1,2.34,10.83c-.2-.34-.4-.66-.61-1a71.05,71.05,0,0,0-11-13c-.89-.84-1.79-1.68-2.73-2.47-2.33-2-5.71,1.39-3.36,3.36a71.72,71.72,0,0,1,6.5,6.31c3.73,4,7.42,8.61,9.4,13.79.22.6.42,1.2.6,1.81a37.63,37.63,0,0,0-3.78-.61,76,76,0,0,0-8.67-.48c-3.66,0-7.34,0-11,.31a2.42,2.42,0,0,0-2.37,2.37,2.4,2.4,0,0,0,2.37,2.38c3.47-.24,6.95-.33,10.42-.31,2.81,0,5.62.1,8.42.39a28.14,28.14,0,0,1,3.27.51c.27.06.53.14.8.21-3.9,10.05-15.37,15.77-25.61,17.3-3,.45-1.73,5,1.26,4.58a42.6,42.6,0,0,0,19.42-8.11c-5.94,8.35-14.85,14.14-24,18.43-2.77,1.29-.36,5.39,2.4,4.1.15-.06.29-.14.43-.21a62.19,62.19,0,0,1,16.09,11.52,50,50,0,0,1,9.17,11.9c-5.86-5.55-13.24-9.27-21.67-9.42a19.51,19.51,0,0,0-3.16.21,2.4,2.4,0,0,0-1.67,2.92,2.45,2.45,0,0,0,2.93,1.66l-.33.05.25,0c.47,0,.94-.06,1.41-.06.72,0,1.43,0,2.15.08l1.14.12.43.06.78.14a28.7,28.7,0,0,1,14.13,7.22,38.59,38.59,0,0,1,5.94,7.14l0,0c-.14.15-.27.3-.42.44l-.43.37-.4.28a11.32,11.32,0,0,1-1.22.7c-.21.11-.43.21-.66.31l-.55.22a27.71,27.71,0,0,1-3.36,1c-1.19.29-2.4.53-3.61.72s-1.84.28-3.22.42q-3.06.3-6.14.39c-1,0-2,.06-3,0-3.06,0-3.06,4.7,0,4.75a77.65,77.65,0,0,0,9.4-.45c4.31-.45,9.21-1.06,13.2-3.1a30.25,30.25,0,0,1-5.61,10.46,45.24,45.24,0,0,1-6.23,6.3c-.35.29-.7.58-1.06.86l-.74.55c-.28.21-.56.41-.85.59-2.55,1.66-.17,5.78,2.41,4.11a42.42,42.42,0,0,0,14.6-16.22c-1.53,10.63-7.37,20.3-14,28.51a2.39,2.39,0,0,0,2.24,4c-.15,0-.28,0,.07,0,.59-.07,1.18-.14,1.78-.19,2-.19,4-.3,6-.35a74.91,74.91,0,0,1,18.11,1.62q1.61.36,3.18.81a37.65,37.65,0,0,0-9.88,2.51,46.51,46.51,0,0,0-11.61,6.51c-2.4,1.9,1,5.24,3.36,3.37l-.2.15.32-.23c.56-.4,1.12-.78,1.69-1.16a48.28,48.28,0,0,1,5.71-3.18c5.32-2.52,11.48-4.1,17.38-3.18a22,22,0,0,1,6.77,2.25l-2.86,2.91c-4.31,4.37-8.83,8.61-13,13.15l-.19.19c-2.15,2.18,1.21,5.55,3.37,3.36l10.58-10.74,4.72-4.79a38.49,38.49,0,0,1,.75,3.94c1.17,9-.2,18.09-2.59,26.72-.82,3,3.76,4.21,4.58,1.26,2.37-8.53,3.75-17.53,2.94-26.4-.08-.86-.17-1.79-.27-2.73a34.17,34.17,0,0,1,6.94,19.2c.22,5.37-.47,11.15-2.86,16-.94,1.92,1.16,4.79,3.26,3.26a63.49,63.49,0,0,1,17.81-8.8A54.3,54.3,0,0,1,494.28,560c-.33.2-.66.4-1,.61a71,71,0,0,0-13,11c-.85.89-1.69,1.79-2.48,2.73-1.95,2.33,1.39,5.71,3.37,3.36a70.4,70.4,0,0,1,6.31-6.5c4-3.73,8.61-7.42,13.79-9.4.59-.22,1.2-.42,1.8-.6-.28,1.24-.45,2.51-.61,3.78a80.78,80.78,0,0,0-.48,8.66c0,3.67.06,7.35.31,11a2.43,2.43,0,0,0,2.38,2.37,2.4,2.4,0,0,0,2.38-2.37c-.25-3.47-.33-7-.32-10.42,0-2.81.1-5.62.4-8.42a25.87,25.87,0,0,1,.51-3.27c.06-.27.14-.53.21-.8,10,3.89,15.77,15.37,17.29,25.61.45,3,5,1.73,4.59-1.27a42.72,42.72,0,0,0-8.11-19.41c8.15,5.8,13.84,14.42,18.1,23.35v192.9a21,21,0,0,0-34.3,24,21.26,21.26,0,0,0,22,9.88c9.43-1.7,16.27-10,17-19.31a2.74,2.74,0,0,0,.07-.6v-210a63.42,63.42,0,0,1,11-15,50.16,50.16,0,0,1,11.9-9.17c-5.55,5.86-9.27,13.24-9.41,21.67a18.57,18.57,0,0,0,.2,3.16,2.39,2.39,0,0,0,2.93,1.66,2.44,2.44,0,0,0,1.66-2.92c0,.15,0,.25,0,.33,0-.07,0-.14,0-.25q0-.71-.06-1.41c0-.72,0-1.44.08-2.15q0-.57.12-1.14c0-.11.05-.34.07-.43,0-.26.08-.52.13-.78a28.8,28.8,0,0,1,7.23-14.13,38.27,38.27,0,0,1,7.14-5.94l0,0c.14.14.3.27.44.42s.25.28.37.42l.28.41a13.22,13.22,0,0,1,.69,1.22c.11.21.21.43.31.65,0,.06.19.45.23.56a30.08,30.08,0,0,1,1,3.35c.29,1.2.52,2.41.72,3.62s.27,1.84.41,3.22q.32,3.06.4,6.14c0,1,.05,2,0,3,0,3.06,4.71,3.06,4.76,0a77.92,77.92,0,0,0-.46-9.41c-.45-4.31-1.06-9.2-3.09-13.19a30.58,30.58,0,0,1,10.46,5.6,45.86,45.86,0,0,1,6.3,6.24c.29.35.58.7.86,1.06l.55.74.59.84c1.66,2.56,5.78.18,4.1-2.4a42.46,42.46,0,0,0-16.21-14.6c10.63,1.53,20.3,7.37,28.5,14a2.39,2.39,0,0,0,4-2.23c0,.15,0,.28,0-.07-.07-.59-.14-1.19-.2-1.78-.19-2-.3-4-.34-6A74.9,74.9,0,0,1,623.83,544c.24-1.07.52-2.13.82-3.18a37.64,37.64,0,0,0,2.5,9.88,46.86,46.86,0,0,0,6.52,11.61c1.89,2.4,5.24-1,3.36-3.37.08.1.12.16.16.2s-.13-.17-.23-.31c-.4-.56-.79-1.12-1.16-1.69a49.82,49.82,0,0,1-3.19-5.71c-2.51-5.33-4.1-11.48-3.17-17.38a21.82,21.82,0,0,1,2.24-6.78l2.91,2.87c4.37,4.31,8.61,8.83,13.16,13l.18.19c2.19,2.15,5.55-1.21,3.37-3.37l-10.75-10.58-4.78-4.72a37.49,37.49,0,0,1,3.94-.75c8.95-1.17,18.08.2,26.71,2.59,3,.82,4.21-3.77,1.26-4.58-8.53-2.37-17.53-3.75-26.39-2.94-.87.08-1.79.16-2.74.27a34.23,34.23,0,0,1,19.21-6.94c5.37-.22,11.14.46,16,2.86,1.91.94,4.78-1.16,3.25-3.26a63.46,63.46,0,0,1-8.79-17.81,54.33,54.33,0,0,1-2.35-10.82l.61,1a71.44,71.44,0,0,0,11,13c.88.85,1.78,1.69,2.72,2.48,2.33,1.95,5.71-1.4,3.37-3.37a71.84,71.84,0,0,1-6.51-6.31c-3.72-4-7.42-8.61-9.39-13.79-.23-.59-.43-1.2-.6-1.8a37,37,0,0,0,3.77.6,78.46,78.46,0,0,0,8.67.49c3.66,0,7.34-.06,11-.31a2.44,2.44,0,0,0,2.38-2.38,2.4,2.4,0,0,0-2.38-2.38c-3.46.24-6.94.33-10.41.32-2.81,0-5.63-.11-8.42-.4a26,26,0,0,1-3.28-.51c-.27-.06-.53-.14-.79-.21,3.89-10.05,15.37-15.77,25.6-17.29,3-.45,1.74-5-1.26-4.59a42.67,42.67,0,0,0-19.41,8.11c5.94-8.35,14.84-14.14,24-18.42C699.31,436.2,696.9,432.1,694.14,433.39Zm-165.07,378a16.26,16.26,0,1,1,10.67-15.27A16.43,16.43,0,0,1,529.07,811.36ZM629.6,349.55l.16.11a37.35,37.35,0,0,0,4.72,3.26,47.65,47.65,0,0,0,10.83,4.53,74.44,74.44,0,0,0,20.14,2.67c1.94,0,3.89,0,5.84-.14-7.87,10.95-13.47,23.91-12,37.19a2.28,2.28,0,0,0,.08.72c.09.67.18,1.34.3,2A53.25,53.25,0,0,0,634,423.76,105.9,105.9,0,0,1,635.91,403c.57-2.74,1.41-6.22,3-8.33a2.54,2.54,0,0,0,.59-1.08c0-.07,0-.14,0-.21s0-.16,0-.24v-.15a2.44,2.44,0,0,0-1.12-2.24,2.19,2.19,0,0,0-.88-.4,102.43,102.43,0,0,1-21.85-11.66c10.72,2,22.85-2.13,32.29-6.81,1.41-.7,2.83-1.43,4.18-2.25,2.61-1.59.22-5.7-2.4-4.11a67.69,67.69,0,0,1-15.71,6.83c-8.21,2.45-18.06,3.56-25.4-1.51l1-1Zm-33.9,53.91c-.26,1.22-.53,2.44-.79,3.66l-37.08,15.27L578.9,401l22.22-22.56Zm8.17-15.25,2.34-10.83c2,1.66,4.09,3.27,6.22,4.79a106.78,106.78,0,0,0,21.43,11.75c-2.59,4.93-3.25,11-3.79,16.38a157.63,157.63,0,0,0-.73,16,53.2,53.2,0,0,0-7.66-6.43,126.8,126.8,0,0,0-19.1-11c-.92-.44-1.85-.86-2.77-1.28.27-1.2.4-2.47.63-3.49Q602.15,396.12,603.87,388.21Zm-51.18,32.62q7.3-17.73,14.6-35.45l1.71-4.16L597.89,375l-18.61,18.89L552.81,420.7Zm-45.78-22.17-22.55-22.22,25,5.42,3.67.79,15.27,37.08ZM530.64,451l.06,0q-7.26,17.64-14.53,35.28l-1.71,4.16-28.88,6.26,18.61-18.89Zm38.15-74.56c-1.3-3.35-2.78-6.65-4.38-9.86-3.29-6.61-7.26-13.56-12.95-18.4l-.13-.1a138.22,138.22,0,0,0,26.22-5.22,90.71,90.71,0,0,0,7.77,12.36,124,124,0,0,0,12.76,14.88Zm-14-17.13A97,97,0,0,1,563.51,376c.43,1.06.84,2.12,1.24,3.19-.83,2-1.65,4-2.48,6l-9.12,22.17-4.62,11.22a18.51,18.51,0,0,0-4.52-1.22V349C548.6,350.6,552.26,355.54,554.76,359.27ZM539,356.06v61.21a18.58,18.58,0,0,0-5.85,1.77l-6.54-15.87c-3.08-7.48-5.86-15.19-9.26-22.54,1.46-3.28,3.07-6.5,4.76-9.67,3.42-6.37,7.2-12.86,12.24-18.1A23,23,0,0,1,539,349Zm-13.22-.18a126.86,126.86,0,0,0-11,19.1c-.44.92-.85,1.85-1.27,2.77-1.2-.27-2.47-.4-3.49-.63l-15.84-3.43-10.82-2.34c1.65-2,3.26-4.09,4.78-6.22a106.33,106.33,0,0,0,11.76-21.43c4.93,2.59,11,3.25,16.37,3.79a158,158,0,0,0,16,.73A52.56,52.56,0,0,0,525.75,355.88Zm-26,42.4,26.7,26.31-.09.12-35.08-14.44-4.16-1.71q-3.12-14.44-6.26-28.89Zm-17.44,10.49c-3.36,1.29-6.65,2.78-9.86,4.38-6.61,3.29-13.56,7.26-18.41,13a1.13,1.13,0,0,1-.1.13A139,139,0,0,0,448.73,400a91.59,91.59,0,0,0,12.35-7.77A122.43,122.43,0,0,0,476,379.48Q479.14,394.12,482.31,408.77Zm-17.14,14a96.7,96.7,0,0,1,16.69-8.75c1.05-.43,2.12-.85,3.19-1.24l6,2.47,22.16,9.13,10.83,4.46a18.17,18.17,0,0,0-1.19,4.68h-68C456.51,429,461.45,425.3,465.17,422.8ZM462,438.59h61a18.35,18.35,0,0,0,1.93,5.87L509.07,451c-7.48,3.08-15.18,5.86-22.53,9.26-3.28-1.46-6.51-3.07-9.67-4.76-6.38-3.42-12.86-7.2-18.1-12.25a22.31,22.31,0,0,1-3.82-4.64Zm-8.56,22.76a157.62,157.62,0,0,0,.72-16,52.63,52.63,0,0,0,7.67,6.43,125,125,0,0,0,19.1,11c.91.45,1.84.86,2.77,1.28-.27,1.2-.41,2.47-.63,3.49q-1.72,7.92-3.43,15.84-1.17,5.42-2.35,10.82c-2-1.66-4.08-3.26-6.22-4.78a106.52,106.52,0,0,0-21.42-11.76C452.2,472.8,452.86,466.71,453.4,461.35Zm34.36,6.84c.27-1.22.53-2.44.8-3.66l37.08-15.27-21.07,21.39L482.34,493.2Zm26.92,27.06c1.29,3.35,2.78,6.65,4.37,9.86,3.29,6.61,7.26,13.56,13,18.4l.13.11a138.93,138.93,0,0,0-26.23,5.21,89,89,0,0,0-7.77-12.35,121.56,121.56,0,0,0-12.76-14.88Zm14,17.14A96.37,96.37,0,0,1,520,495.7c-.44-1.05-.85-2.12-1.25-3.19.83-2,1.65-4,2.48-6q4.56-11.08,9.13-22.16l4.59-11.15a18.56,18.56,0,0,0,4.54,1.07v68.4C534.86,521.05,531.21,516.11,528.71,512.39Zm15.78,3.21V454.07a18.23,18.23,0,0,0,5.66-1.93q3.36,8.17,6.73,16.34c3.08,7.49,5.87,15.19,9.26,22.54-1.46,3.28-3.06,6.51-4.76,9.67-3.41,6.37-7.19,12.86-12.24,18.1a22.63,22.63,0,0,1-4.65,3.82Zm10.68-63.68L576.55,473l22.56,22.23-25-5.42-3.66-.8Zm2.54,63.85a125.88,125.88,0,0,0,11-19.1c.44-.91.86-1.84,1.28-2.77,1.2.27,2.46.41,3.49.63L589.35,498l10.83,2.35c-1.66,2-3.27,4.08-4.79,6.22A106.71,106.71,0,0,0,583.64,528c-4.93-2.59-11-3.25-16.38-3.79a157.62,157.62,0,0,0-16-.72A53.08,53.08,0,0,0,557.71,515.77Zm26-42.4-26.86-26.46-.12-.12,35.45,14.59,4.16,1.72q3.13,14.44,6.26,28.88Zm17.45-10.49c3.35-1.29,6.64-2.78,9.86-4.37,6.61-3.29,13.56-7.26,18.4-13a1.47,1.47,0,0,0,.1-.13,138.93,138.93,0,0,0,5.21,26.23,90.25,90.25,0,0,0-12.35,7.77,121.56,121.56,0,0,0-14.88,12.76Q604.34,477.53,601.16,462.88Zm17.13-14a97,97,0,0,1-16.68,8.75c-1.06.44-2.12.85-3.19,1.25l-6-2.48-22.17-9.13-11.55-4.75a18.4,18.4,0,0,0,1.11-4.38h68.77C627,442.7,622,446.35,618.29,448.85Zm3.21-15.78H559.76a18.47,18.47,0,0,0-1.76-5.64l16.39-6.75c7.48-3.08,15.18-5.87,22.54-9.26,3.28,1.46,6.5,3.06,9.66,4.76,6.38,3.41,12.87,7.19,18.11,12.24a23,23,0,0,1,3.82,4.65ZM576.84,318.54c.39-.71.78-1.43,1.16-2.15.19,0,.37.07.56.09,12,1.48,24.26-2.14,34.82-7.71.38-.2.76-.43,1.14-.64a40.79,40.79,0,0,0,3.63,29,33.84,33.84,0,0,0,7.74,9.38Q618,354.6,610,362.66l-4.74,4.82a2.43,2.43,0,0,1-.2-.25,18.49,18.49,0,0,1-2.38-4.28c-2.73-6.95-1.92-14.93-.26-22a76.06,76.06,0,0,1,2.49-8.38c.3-.82.61-1.62.93-2.43l.11-.29.1-.21c1.24-2.77-2.85-5.19-4.11-2.4a68,68,0,0,0-5.05,17.33c-.94,6.08-1,12.56.81,18.37a111.29,111.29,0,0,1-14.35-19.41,51.69,51.69,0,0,1-2.52-4.7,2.4,2.4,0,0,0-2.69-1.09,147.73,147.73,0,0,1-20.44,4.75,48.32,48.32,0,0,0,5.73-5.13A87.74,87.74,0,0,0,576.84,318.54ZM512,316.27l.53-.21h.05a2.22,2.22,0,0,0,.77-.31c10.93-4.37,19.68-13,26.19-22.62.91-1.34,1.79-2.73,2.61-4.15,6.78,12.08,16.63,22.3,29.91,26.17a2.41,2.41,0,0,0,.57.22c.16.05.33.07.49.11-1.31,2.45-2.75,4.84-4.24,7.16-4.18,6.46-9.19,12.91-15.67,17.2a22.13,22.13,0,0,1-9.2,3.67V313c0-3.06-4.75-3.06-4.75,0v.87A2.31,2.31,0,0,0,539,315v27.46a48.85,48.85,0,0,1-28.51-25.71C511,316.59,511.49,316.45,512,316.27ZM455.57,347.8a38.35,38.35,0,0,0,3.25-4.72,48.14,48.14,0,0,0,4.54-10.83A74.43,74.43,0,0,0,466,312.11c0-1.94,0-3.89-.14-5.84,10.95,7.86,23.91,13.47,37.19,12a2.21,2.21,0,0,0,.72-.08c.68-.09,1.35-.18,2-.3a53.18,53.18,0,0,0,23.86,25.65,105.92,105.92,0,0,1-20.82-1.92c-2.74-.57-6.21-1.41-8.33-3a2.48,2.48,0,0,0-1.08-.59l-.2,0-.25,0h-.15a2.46,2.46,0,0,0-2.24,1.12,2.17,2.17,0,0,0-.39.88,102.56,102.56,0,0,1-11.66,21.84c2-10.71-2.13-22.84-6.82-32.28-.7-1.41-1.43-2.83-2.25-4.18-1.58-2.61-5.7-.23-4.1,2.4a67.66,67.66,0,0,1,6.82,15.71c2.45,8.21,3.57,18.06-1.5,25.4l-1-.95-20.28-20Zm-40.9,16.38c-.2-.38-.42-.76-.63-1.14a40.85,40.85,0,0,0,29-3.63,33.84,33.84,0,0,0,9.38-7.75l16.13,15.9,4.82,4.74c-.09.07-.16.14-.25.2a18.94,18.94,0,0,1-4.29,2.38c-7,2.73-14.93,1.92-22,.26a76.22,76.22,0,0,1-8.39-2.49c-.81-.3-1.62-.61-2.42-.93l-.29-.11-.22-.1c-2.76-1.24-5.19,2.85-2.4,4.1a67.73,67.73,0,0,0,17.33,5.06c6.08.94,12.57,1,18.38-.81a111.29,111.29,0,0,1-19.41,14.35c-1.53.89-3.09,1.78-4.7,2.52a2.38,2.38,0,0,0-1.09,2.69,149.19,149.19,0,0,1,4.75,20.44,50.14,50.14,0,0,0-5.13-5.73,88.24,88.24,0,0,0-18.78-13.41c-.71-.4-1.43-.78-2.16-1.16,0-.19.07-.37.1-.56C423.86,387,420.25,374.74,414.67,364.18ZM399,438c-1.35-.91-2.73-1.79-4.15-2.61,12.07-6.78,22.3-16.63,26.17-29.92a2.62,2.62,0,0,0,.22-.56c0-.16.07-.33.11-.49,2.44,1.31,4.83,2.74,7.15,4.24,6.46,4.18,12.92,9.19,17.21,15.67a22.26,22.26,0,0,1,3.67,9.2H418.89c-3.06,0-3.07,4.75,0,4.75h.87a2.27,2.27,0,0,0,1.14.29h27.46a48.72,48.72,0,0,1-25.71,28.51c-.16-.52-.29-1-.48-1.54-.06-.18-.14-.36-.2-.53v0a2.7,2.7,0,0,0-.31-.77C417.27,453.28,408.69,444.53,399,438Zm54.83,84.09-.15-.12a40,40,0,0,0-4.72-3.26,49,49,0,0,0-10.83-4.53A74.91,74.91,0,0,0,418,511.53c-1.94,0-3.89,0-5.83.15,7.86-10.95,13.46-23.91,12-37.19a2,2,0,0,0-.09-.72c-.08-.68-.17-1.35-.3-2a53.25,53.25,0,0,0,25.66-23.86,105.17,105.17,0,0,1-1.93,20.82c-.56,2.74-1.4,6.21-3,8.33a2.46,2.46,0,0,0-.58,1.08,1.42,1.42,0,0,0,0,.2,1.87,1.87,0,0,0,0,.25.71.71,0,0,0,0,.14A2.48,2.48,0,0,0,445,481a2.27,2.27,0,0,0,.87.39A102.63,102.63,0,0,1,467.75,493c-10.71-2-22.85,2.13-32.28,6.82-1.42.7-2.83,1.43-4.18,2.25-2.62,1.58-.23,5.7,2.4,4.1a67.77,67.77,0,0,1,15.7-6.82c8.21-2.45,18.07-3.57,25.41,1.5l-1,1Zm52.76,31c-.39.71-.78,1.43-1.15,2.15-.19,0-.37-.06-.56-.09-12-1.47-24.26,2.14-34.82,7.72-.39.2-.76.42-1.14.63a40.85,40.85,0,0,0-3.64-29,33.81,33.81,0,0,0-7.74-9.38q7.95-8.07,15.89-16.13l4.75-4.82c.06.09.13.16.2.25a18.52,18.52,0,0,1,2.37,4.29c2.73,6.95,1.92,14.93.26,22a74.72,74.72,0,0,1-2.49,8.39c-.29.81-.61,1.62-.92,2.42-.06.15-.09.23-.12.29l-.1.21c-1.24,2.77,2.86,5.19,4.11,2.4a67.62,67.62,0,0,0,5.06-17.33c.93-6.07,1-12.56-.82-18.37a110.84,110.84,0,0,1,14.36,19.41c.89,1.53,1.77,3.09,2.52,4.7a2.38,2.38,0,0,0,2.68,1.09,149.67,149.67,0,0,1,20.45-4.75,49.31,49.31,0,0,0-5.73,5.13A87.68,87.68,0,0,0,506.62,553.11Zm4.78,3.4a2.26,2.26,0,0,0-.57-.22l-.49-.11c1.32-2.44,2.75-4.83,4.25-7.15,4.17-6.47,9.19-12.92,15.67-17.21a22.22,22.22,0,0,1,9.19-3.67v15.32l.29-.87V580C533,569.12,523.69,560.09,511.4,556.51Zm60.06-1.13c-.18.07-.35.15-.53.21h0a2.63,2.63,0,0,0-.76.31c-10.62,4.25-19.18,12.48-25.63,21.8V529.2A48.65,48.65,0,0,1,573,554.91C572.49,555.07,572,555.2,571.46,555.38Zm56.43-31.53a39.93,39.93,0,0,0-3.25,4.72,48,48,0,0,0-4.53,10.83,74.51,74.51,0,0,0-2.67,20.15c0,1.94,0,3.89.14,5.83-11-7.86-23.91-13.46-37.19-12a2,2,0,0,0-.72.09c-.67.08-1.34.17-2,.29a53.14,53.14,0,0,0-23.86-25.65A105.17,105.17,0,0,1,574.61,530c2.74.56,6.22,1.4,8.33,3a2.63,2.63,0,0,0,1.08.58l.21,0,.24,0h.15a2.45,2.45,0,0,0,2.24-1.13,2.29,2.29,0,0,0,.4-.87,102.19,102.19,0,0,1,11.66-21.85c-2,10.71,2.13,22.85,6.81,32.28.7,1.42,1.43,2.83,2.25,4.18,1.59,2.62,5.7.23,4.11-2.4a67.69,67.69,0,0,1-6.83-15.71c-2.45-8.2-3.56-18.06,1.51-25.4l1,1,20.28,20Zm40.9-16.38c.2.39.43.76.64,1.14a40.88,40.88,0,0,0-29,3.64A33.77,33.77,0,0,0,631,520L614.89,504.1l-4.81-4.75.24-.2a18.73,18.73,0,0,1,4.29-2.37c6.95-2.73,14.93-1.93,22-.26A73.94,73.94,0,0,1,645,499c.82.29,1.62.6,2.43.92l.29.12.21.1c2.77,1.24,5.19-2.86,2.4-4.11A67.62,67.62,0,0,0,633,491c-6.08-.93-12.56-1-18.38.82a111.29,111.29,0,0,1,19.42-14.36c1.53-.89,3.08-1.77,4.69-2.52a2.38,2.38,0,0,0,1.1-2.68,148.21,148.21,0,0,1-4.75-20.45,47.54,47.54,0,0,0,5.13,5.73A87.62,87.62,0,0,0,659,470.94c.72.39,1.44.78,2.16,1.15,0,.19-.07.37-.09.56C659.6,484.67,663.22,496.91,668.79,507.47Zm-6.37-41.31a2.71,2.71,0,0,0-.23.57c0,.16-.07.32-.1.48-2.45-1.31-4.84-2.74-7.16-4.24-6.46-4.17-12.91-9.19-17.2-15.67a22,22,0,0,1-3.67-9.19h30.51c3.06,0,3.07-4.76,0-4.76h-.87a2.34,2.34,0,0,0-1.14-.28H635.1a46.31,46.31,0,0,1,4.21-9.12,47.34,47.34,0,0,1,21.5-19.39c.16.51.29,1,.48,1.53l.21.54v.05a2.17,2.17,0,0,0,.31.76c4.37,10.93,13,19.68,22.61,26.19,1.35.91,2.74,1.8,4.15,2.62C676.51,443,666.29,452.88,662.42,466.16Z" transform="translate(-293.98 -279.79)"/><path d="M395.67,776.41a21,21,0,1,0-3.36,40.3,20.35,20.35,0,0,0,12.3-7.43v6.21a2.38,2.38,0,0,0,4.76,0V795.4h0A21.26,21.26,0,0,0,395.67,776.41Zm-1.73,35a16.26,16.26,0,1,1,10.67-15.27A16.43,16.43,0,0,1,393.94,811.36Z" transform="translate(-293.98 -279.79)"/><path d="M741.85,776.41a21,21,0,1,0-3.36,40.3c9.88-1.78,16.92-10.74,17-20.62A21.29,21.29,0,0,0,741.85,776.41Zm-1.73,35a16.26,16.26,0,1,1,10.67-15.27A16.43,16.43,0,0,1,740.12,811.36Z" transform="translate(-293.98 -279.79)"/><path d="M641.53,749v66.42c0,3.06,4.75,3.07,4.75,0V749C646.28,746,641.53,746,641.53,749Z" transform="translate(-293.98 -279.79)"/><path d="M680.23,773.52v41.94c0,3.06,4.75,3.07,4.75,0V773.52C685,770.46,680.23,770.45,680.23,773.52Z" transform="translate(-293.98 -279.79)"/><path d="M682.6,756a2.41,2.41,0,0,0-1.68.7,2.47,2.47,0,0,0-.69,1.68v4.42a2.45,2.45,0,0,0,.69,1.68,2.47,2.47,0,0,0,1.68.7,2.42,2.42,0,0,0,1.69-.7,2.49,2.49,0,0,0,.69-1.68v-4.42a2.45,2.45,0,0,0-.69-1.68A2.39,2.39,0,0,0,682.6,756Z" transform="translate(-293.98 -279.79)"/><path d="M324.84,769.21c-7.23-3-15.45-3.51-23.19-3a58.54,58.54,0,0,0-5.92.65,1.93,1.93,0,0,0-1.15.73,2.08,2.08,0,0,0-.56,1.18,2.58,2.58,0,0,0,0,.39V813.9a2.45,2.45,0,0,0,0,.38,2.12,2.12,0,0,0,.58,1.21,1.92,1.92,0,0,0,1.13.7,64.17,64.17,0,0,0,14.91.68c8.39-.55,17.69-2.75,23.46-9.34,3.91-4.46,5.5-10.15,5.55-16,0-5.13-1.23-10.31-4.34-14.48A24.37,24.37,0,0,0,324.84,769.21Zm6.33,34.45a20.34,20.34,0,0,1-9.12,6.21c-6.59,2.38-13.8,2.7-20.74,2.2-.86-.06-1.71-.16-2.57-.25V771.25c.54-.06,1.08-.13,1.63-.18a69.47,69.47,0,0,1,9.35-.17c7.2.36,15.29,2,20.47,7.4,3.42,3.58,4.67,8.39,4.7,13.23C334.86,795.86,333.9,800.21,331.17,803.66Z" transform="translate(-293.98 -279.79)"/><path d="M444.36,778.93c-.17.16-.31.34-.47.5V775.1c0-3.06-4.75-3.06-4.75,0v16.37c0,1.95,0,3.9,0,5.85V815.7c0,3.06,4.75,3.07,4.75,0V793.5a18.23,18.23,0,0,1,.87-6.75,12,12,0,0,1,20.95-2.7c3.21,4.45,2.45,10.18,2.45,15.36V815.7c0,3.06,4.76,3.07,4.76,0V800.16c0-6.13.72-12.68-2.81-18.08C464.39,773.34,452,771.5,444.36,778.93Z" transform="translate(-293.98 -279.79)"/><path d="M815.53,782.08c-5.72-8.74-18.13-10.58-25.75-3.15-.17.16-.31.34-.47.5V775.1c0-3.06-4.76-3.06-4.76,0v16.37c0,1.95,0,3.9,0,5.85V815.7c0,3.06,4.76,3.07,4.76,0V793.5a18.23,18.23,0,0,1,.87-6.75,12,12,0,0,1,21-2.7c3.21,4.45,2.45,10.18,2.45,15.36V815.7c0,3.06,4.75,3.07,4.75,0V800.16C818.33,794,819.06,787.48,815.53,782.08Z" transform="translate(-293.98 -279.79)"/><path d="M595.5,775.35a20.33,20.33,0,0,0-13.69,2.27,21,21,0,0,0,14.09,39.09,20.25,20.25,0,0,0,11.36-6.34,2.34,2.34,0,0,0-.32-3.4,2.38,2.38,0,0,0-3.22.29,15.74,15.74,0,0,1-6.19,4.1,16.43,16.43,0,0,1-18.21-5,16.11,16.11,0,0,1-3.5-8.55h37c0-.56.09-1.12.1-1.68A21.29,21.29,0,0,0,595.5,775.35ZM576,793a16,16,0,0,1,2-5.29A16.21,16.21,0,0,1,607.87,793Z" transform="translate(-293.98 -279.79)"/></svg>